# AST/ASF file generated using VICON BodyLanguage
# -----------------------------------------------
:version 1.10
:name VICON
:units
  mass 1.0
  length 0.45
  angle deg
:documentation
   .ast/.asf automatically generated from VICON data using
   VICON BodyBuilder and BodyLanguage model FoxedUp or BRILLIANT.MOD
:root
   order TX TY TZ RX RY RZ
   axis XYZ
   position 0 0 0  
   orientation 0 0 0 
:bonedata
  begin
     id 1 
     name lhipjoint
     direction 0.561001 -0.76473 0.316963 
     length 2.4722 
     axis 0 0 0  XYZ
  end
  begin
     id 2 
     name lfemur
     direction 0.34202 -0.939693 0  
     length 7.59403  
     axis 0 0 20  XYZ
    dof rx ry rz
    limits (-160.0 20.0)
           (-70.0 70.0)
           (-60.0 70.0)
  end
  begin
     id 3 
     name ltibia
     direction 0.34202 -0.939693 0   
     length 7.89655   
     axis 0 0 20   XYZ
    dof rx
    limits (-10.0 170.0)
  end
  begin
     id 4 
     name lfoot
     direction 0.061296 -0.168409 0.98381   
     length 2.73287   
     axis -90 7.62852e-016 20   XYZ
    dof rx rz
    limits (-45.0 90.0)
           (-70.0 20.0)
  end
  begin
     id 5 
     name ltoes
     direction 1.53547e-011 -4.21984e-011 1   
     length 1.37057   
     axis -90 7.62852e-016 20   XYZ
    dof rx
    limits (-90.0 20.0)
  end
  begin
     id 6 
     name rhipjoint
     direction -0.559611 -0.765599 0.317323   
     length 2.46939  
     axis 0 0 0  XYZ 
  end
  begin
     id 7 
     name rfemur
     direction -0.34202 -0.939693 0   
     length 7.53712   
     axis 0 0 -20   XYZ
    dof rx ry rz
    limits (-160.0 20.0)
           (-70.0 70.0)
           (-70.0 60.0)
  end
  begin
     id 8 
     name rtibia
     direction -0.34202 -0.939693 0   
     length 8.12549   
     axis 0 0 -20   XYZ
    dof rx
    limits (-10.0 170.0)
 end
 begin
     id 9 
     name rfoot
     direction -0.066984 -0.184037 0.980634   
     length 2.67541  
     axis -90 -7.62852e-016 -20   XYZ
    dof rx rz
    limits (-45.0 90.0)
           (-20.0 70.0)
  end
  begin
     id 10 
     name rtoes
     direction -1.53549e-011 -4.21786e-011 1   
     length 1.34085   
     axis -90 -7.62852e-016 -20   XYZ
    dof rx
    limits (-90.0 20.0)
  end
  begin
     id 11 
     name lowerback
     direction -0.0522728 0.992594 -0.109658   
     length 2.05633   
     axis 0 0 0   XYZ
    dof rx ry rz
    limits (-20.0 45.0)
           (-30.0 30.0)
           (-30.0 30.0)
  end
  begin
     id 12 
     name upperback
     direction 0.00589338 0.999977 0.00335704   
     length 2.05845   
     axis 0 0 0   XYZ
    dof rx ry rz
    limits (-20.0 45.0)
           (-30.0 30.0)
           (-30.0 30.0)
  end
  begin
     id 13 
     name thorax
     direction 0.0292928 0.998059 0.0549487   
     length 2.09281   
     axis 0 0 0   XYZ
    dof rx ry rz
    limits (-20.0 45.0)
           (-30.0 30.0)
           (-30.0 30.0)
  end
  begin
     id 14 
     name lowerneck
     direction 0.0356368 0.980775 0.191858   
     length 1.84767   
     axis 0 0 0   XYZ
    dof rx ry rz
    limits (-20.0 45.0)
           (-30.0 30.0)
           (-30.0 30.0)
  end
  begin
     id 15 
     name upperneck
     direction -0.0227605 0.98931 -0.14404   
     length 1.89582   
     axis 0 0 0   XYZ
    dof rx ry rz
    limits (-20.0 45.0)
           (-30.0 30.0)
           (-30.0 30.0)
  end
  begin
     id 16
     name head
     direction -0.00932985 0.997511 -0.0698904  
     length 1.90213  
     axis 0 0 0   XYZ
    dof rx ry rz
    limits (-20.0 45.0)
           (-30.0 30.0)
           (-30.0 30.0)
  end
  begin
     id 17 
     name lclavicle
     direction 0.873442 0.479511 0.0846686  
     length 3.41193  
     axis 0 0 0   XYZ
    dof ry rz
    limits (-20.0 10.0)
           (0.0 20.0)
  end
  begin
     id 18 
     name lhumerus
     direction 1 -4.4897e-011 -5.62117e-018   
     length 5.59864   
     axis 180 -30 -90   XYZ
    dof rx ry rz
    limits (-60.0 90.0)
           (-90.0 90.0)
           (-90.0 90.0)
  end
  begin
     id 19
     name lradius
     direction 1 -4.48966e-011 -6.26295e-027   
     length 3.59542   
     axis 180 -30 -90   XYZ
    dof rx
    limits (-10.0 170.0)
  end
  begin
     id 20
     name lwrist
     direction 1 -4.48947e-011 -1.74096e-026   
     length 1.79771   
     axis 1.04567e-014 90 90   XYZ
    dof ry
    limits (-180.0 0.0)
 end
  begin
     id 21 
     name lhand
     direction 1 -4.49085e-011 -3.48469e-026   
     length 0.572014   
     axis 2.22196e-014 90 90   XYZ
    dof rx rz
    limits (-90.0 90.0)
           (-45.0 45.0)
  end
  begin
     id 22 
     name lfingers
     direction 1 -4.48884e-011 -6.96135e-026   
     length 0.461173   
     axis 4.44383e-014 90 90   XYZ
    dof rx
    limits (0.0 90.0)
  end
  begin
     id 23
     name lthumb
     direction 0.707107 -6.34976e-011 0.707107   
     length 0.662154   
     axis -90 45 -5.4397e-014   XYZ
    dof rx rz
    limits (-45.0 45.0)
           (-45.0 45.0)
  end
  begin
     id 24 
     name rclavicle
     direction -0.890242 0.443271 0.104786   
     length 3.46753  
     axis 0 0 0   XYZ 
    dof ry rz
    limits (-10.0 20.0)
           (-20.0 0.0)
  end
  begin
     id 25 
     name rhumerus
     direction -1 -4.48963e-011 -5.41723e-018  
     length 5.8094   
     axis 180 30 90   XYZ
    dof rx ry rz
    limits (-90.0 60.0)
           (-90.0 90.0)
           (-90.0 90.0)
  end
  begin
     id 26 
     name rradius
     direction -1 -4.48958e-011 -6.51059e-027   
     length 3.66953   
     axis 180 30 90   XYZ
    dof rx
    limits (-10.0 170.0)
  end
  begin
     id 27 
     name rwrist
     direction -1 -4.48975e-011 -1.74124e-026   
     length 1.83476   
     axis 1.04567e-014 -90 -90   XYZ
    dof ry
    limits (-180.0 0.0)
  end
  begin
     id 28
     name rhand
     direction -1 -4.49013e-011 -3.48326e-026   
     length 0.57843   
     axis 2.22196e-014 -90 -90   XYZ
    dof rx rz
    limits (-90.0 90.0)
           (-45.0 45.0)
  end
  begin
     id 29
     name rfingers
     direction -1 -4.49023e-011 -6.9669e-026   
     length 0.466345   
     axis 4.44383e-014 -90 -90   XYZ
    dof rx
    limits (0.0 90.0)
  end
  begin
     id 30
     name rthumb
     direction -0.707107 -6.34926e-011 0.707107   
     length 0.669581   
     axis -90 -45 5.4397e-014   XYZ
    dof rx rz
    limits (-45.0 45.0)
           (-45.0 45.0)
  end
:hierarchy
  begin
    root lhipjoint rhipjoint lowerback
    lhipjoint lfemur
    lfemur ltibia
    ltibia lfoot
    lfoot ltoes
    rhipjoint rfemur
    rfemur rtibia
    rtibia rfoot
    rfoot rtoes
    lowerback upperback
    upperback thorax
    thorax lowerneck lclavicle rclavicle
    lowerneck upperneck
    upperneck head
    lclavicle lhumerus
    lhumerus lradius
    lradius lwrist
    lwrist lhand lthumb
    lhand lfingers
    rclavicle rhumerus
    rhumerus rradius
    rradius rwrist
    rwrist rhand rthumb
    rhand rfingers
  end

#!OML:ASF H:\SkateBoarding\Project 1\Capture day 1\Session 1\Skater.ASF
:FULLY-SPECIFIED
:DEGREES
239
root -4.72385 19.0354 36.3954 -160.481 35.0045 -179.491
lowerback 12.6278 -5.27688 -1.03072
upperback -1.21032 -6.58186 5.69183
thorax -7.56212 -2.98163 7.91052
lowerneck -13.1253 -14.8698 -7.6648
upperneck 33.2545 -21.6998 9.74904
head 16.093 -8.43926 1.43421
rclavicle -5.96354e-015 6.32135e-014
rhumerus -32.0366 -12.5984 -49.7389
rradius 30.9852
rwrist -5.17686
rhand -36.8947 -9.72888
rfingers 7.12502
rthumb -9.97308 -39.4726
lclavicle -5.96354e-015 6.32135e-014
lhumerus 22.9842 -11.9734 55.2954
lradius 93.7867
lwrist 38.9933
lhand -38.3371 5.17835
lfingers 7.12502
lthumb -11.3644 34.8504
rfemur -20.724 -1.32705 14.2453
rtibia 37.1264
rfoot -34.9898 20.7651
rtoes -3.42389
lfemur -21.3656 -10.6484 -10.0727
ltibia 41.9289
lfoot -55.1911 6.67836
ltoes -22.7879
240
root -4.49144 19.0505 36.6644 -160.84 34.5355 -179.398
lowerback 12.5307 -5.19723 -1.08783
upperback -1.02401 -6.4949 5.62149
thorax -7.3191 -2.95069 7.82106
lowerneck -13.1489 -14.9507 -7.50029
upperneck 33.6711 -21.7873 9.50635
head 16.2512 -8.44646 1.29712
rclavicle -4.57205e-014 1.59028e-014
rhumerus -33.3991 -13.9633 -50.0957
rradius 30.6061
rwrist -4.12571
rhand -36.4545 -9.63425
rfingers 7.12502
rthumb -9.54837 -39.3979
lclavicle -4.57205e-014 1.59028e-014
lhumerus 22.7192 -13.8395 58.3343
lradius 93.5279
lwrist 39.0596
lhand -37.7679 4.906
lfingers 7.12502
lthumb -10.8154 34.6075
rfemur -20.9236 -1.96517 15.0191
rtibia 37.7786
rfoot -35.0956 20.4776
rtoes -4.01306
lfemur -21.4714 -10.8224 -9.27735
ltibia 41.9082
lfoot -54.5079 6.46818
ltoes -22.6406
241
root -4.25577 19.0637 36.9263 -161.473 34.4338 -179.645
lowerback 12.4647 -5.03312 -1.59639
upperback -0.83351 -6.37777 5.4799
thorax -7.05204 -2.89437 7.9083
lowerneck -13.093 -15.0174 -7.40004
upperneck 34.0714 -21.8194 9.22366
head 16.379 -8.44971 1.17
rclavicle -1.29608e-013 -7.95139e-016
rhumerus -34.628 -15.1361 -50.4821
rradius 30.2298
rwrist -3.07858
rhand -36.0783 -9.57095
rfingers 7.12502
rthumb -9.18539 -39.3509
lclavicle -1.29608e-013 -7.95139e-016
lhumerus 22.0283 -15.625 61.3954
lradius 93.3815
lwrist 38.743
lhand -37.1388 4.81326
lfingers 7.12502
lthumb -10.2085 34.5456
rfemur -21.0297 -2.40007 15.3441
rtibia 38.4083
rfoot -35.1179 20.3333
rtoes -4.50876
lfemur -21.2757 -10.9606 -8.94024
ltibia 41.6965
lfoot -53.9583 6.23718
ltoes -22.3352
242
root -4.02355 19.0742 37.1855 -162.224 34.5153 -180.005
lowerback 12.4975 -4.83035 -2.15478
upperback -0.677654 -6.22152 5.26574
thorax -6.88862 -2.81545 7.95598
lowerneck -12.9363 -15.0853 -7.46048
upperneck 34.4231 -21.8652 9.1094
head 16.5179 -8.46165 1.13776
rclavicle -2.72335e-014 3.4191e-014
rhumerus -35.8628 -16.1081 -50.8823
rradius 29.8451
rwrist -2.05209
rhand -35.7032 -9.36024
rfingers 7.12502
rthumb -8.82343 -39.1558
lclavicle -2.72335e-014 3.4191e-014
lhumerus 20.9162 -17.4679 64.4334
lradius 93.3927
lwrist 38.0822
lhand -36.6353 5.23879
lfingers 7.12502
lthumb -9.72283 34.9944
rfemur -21.1142 -2.77054 15.4883
rtibia 39.0579
rfoot -35.1152 20.1736
rtoes -4.85508
lfemur -20.854 -11.0123 -8.82047
ltibia 41.3074
lfoot -53.4228 5.97345
ltoes -22.0699
243
root -3.79327 19.0803 37.4406 -163.073 34.9388 -180.38
lowerback 12.6622 -4.47193 -2.81703
upperback -0.492925 -5.88038 4.96509
thorax -6.7971 -2.64163 7.95432
lowerneck -12.7595 -15.164 -7.4664
upperneck 34.7213 -21.9521 9.04217
head 16.6312 -8.48148 1.10991
rclavicle 2.54444e-014 -3.57812e-014
rhumerus -37.1727 -17.1643 -51.3107
rradius 29.5285
rwrist -1.03971
rhand -35.4168 -9.09937
rfingers 7.12502
rthumb -8.54697 -38.9064
lclavicle 2.54444e-014 -3.57812e-014
lhumerus 19.5336 -19.2175 67.8362
lradius 93.1934
lwrist 37.2853
lhand -36.0136 5.2073
lfingers 7.12502
lthumb -9.12292 34.99
rfemur -21.1643 -2.84772 15.4715
rtibia 39.7402
rfoot -35.0259 20.1259
rtoes -5.19037
lfemur -20.144 -10.9461 -8.87665
ltibia 40.7809
lfoot -53.1319 5.68076
ltoes -21.698
